<?xml version="1.0" encoding="UTF-8" standalone="no"?>
<!DOCTYPE svg PUBLIC "-//W3C//DTD SVG 1.1//EN"
"http://www.w3.org/Graphics/SVG/1.1/DTD/svg11.dtd">
<svg viewBox="0 0 935 1210" version="1.1" xmlns="http://www.w3.org/2000/svg" xmlns:xlink="http://www.w3.org/1999/xlink">
<defs>
<style type="text/css"><![CDATA[
.g0{
fill: #E0E0E0;
}
.g1{
fill: none;
stroke: #000;
stroke-width: 1.466;
stroke-linecap: round;
stroke-miterlimit: 7;
}
.g2{
fill: #D3D3D3;
}
.g3{
fill: #D2D2D2;
}
.g4{
fill: #E5E5E5;
}
]]></style>
</defs>
<image preserveAspectRatio="none" x="48" y="48" width="110" height="110" xlink:href="img/1.jpg"/>
<path d="M646.3 103.2H763.2v27.5H646.3Z" class="g0"/>
<path d="M646.3 103.2v27.5M763.2 103.2v27.5M646.3 103.2H763.2M646.3 130.7H763.2m-116.9 0V165M763.2 130.7V165M646.3 130.7H763.2M646.3 165H763.2" class="g1"/>
<path d="M763.2 103.2H880v27.5H763.2Z" class="g0"/>
<path d="M763.2 103.2v27.5M880 103.2v27.5M763.2 103.2H880M763.2 130.7H880m-116.8 0V165M880 130.7V165M763.2 130.7H880M763.2 165H880" class="g1"/>
<path d="M55 185.7H447V220H55Z" class="g0"/>
<path d="M55 185.7V220M447 185.7V220M55 185.7H447M55 220H447" class="g1"/>
<path d="M460.7 185.7h418V220h-418Z" class="g0"/>
<path d="M460.7 185.7V220m418 -34.3V220m-418 -34.3h418M460.7 220h418m-418 0v96.3M880 220v96.3M460.7 220H880M460.7 316.3H880" class="g1"/>
<path d="M55 412.5H206.3V440H55Z" class="g0"/>
<path d="M55 412.5V440M206.3 412.5V440M55 412.5H206.3M55 440H206.3M55 440v48.2M206.3 440v48.2M55 440H206.3M55 488.2H206.3" class="g1"/>
<path d="M206.3 412.5H460.7V440H206.3Z" class="g0"/>
<path d="M206.3 412.5V440M460.7 412.5V440M206.3 412.5H460.7M206.3 440H460.7m-254.4 0v41.3M460.7 440v41.3M206.3 440H460.7M206.3 481.3H460.7" class="g1"/>
<path d="M460.7 412.5H591.3V440H460.7Z" class="g0"/>
<path d="M460.7 412.5V440M591.3 412.5V440M460.7 412.5H591.3M460.7 440H591.3m-130.6 0v41.3M591.3 440v41.3M460.7 440H591.3M460.7 481.3H591.3" class="g1"/>
<path d="M591.3 412.5H667V440H591.3Z" class="g0"/>
<path d="M591.3 412.5V440M667 412.5V440M591.3 412.5H667M591.3 440H667m-75.7 0v34.5M667 440v34.5M591.3 440H667m-75.7 34.5H667" class="g1"/>
<path d="M667 412.5H880V440H667Z" class="g2"/>
<path d="M667 412.5V440M880 412.5V440M667 412.5H880M667 440H880m-213 0v34.5M880 440v34.5M667 440H880M667 474.5H880" class="g1"/>
<path d="M460.7 337H880v20.5H460.7Z" class="g0"/>
<path d="M460.7 337v20.5M880 337v20.5M460.7 337H880M460.7 357.5H880m-419.3 0v41.3M880 357.5v41.3M460.7 357.5H880M460.7 398.8H880" class="g1"/>
<path d="M55 1031.3H185.7v34.4H55Z" class="g0"/>
<path d="M55 1031.3v34.4m130.7 -34.4v34.4M55 1031.3H185.7M55 1065.7H185.7m-130.7 0v48.1m130.7 -48.1v48.1M55 1065.7H185.7M55 1113.8H185.7" class="g1"/>
<path d="M185.7 1031.3h220v34.4h-220Z" class="g3"/>
<path d="M185.7 1031.3v34.4m220 -34.4v34.4m-220 -34.4h220m-220 34.4h220m-220 0v48.1m220 -48.1v48.1m-220 -48.1h220m-220 48.1h220" class="g1"/>
<path d="M405.7 1031.3H577.5v34.4H405.7Z" class="g3"/>
<path d="M405.7 1031.3v34.4m171.8 -34.4v34.4M405.7 1031.3H577.5m-171.8 34.4H577.5m-171.8 0v48.1m171.8 -48.1v48.1M405.7 1065.7H577.5m-171.8 48.1H577.5m0 -144.3v61.8m172 -61.8v61.8m-172 -61.8h172m-172 61.8h172m-172 34.4v48.1M880 1065.7v48.1M577.5 1065.7H880m-302.5 48.1H880M880 880v55m-302.5 96.3v34.4M880 1031.3v34.4M577.5 1031.3H880m-302.5 34.4H880M55 969.5v61.8M577.5 969.5v61.8M55 969.5H577.5M55 1031.3H577.5" class="g1"/>
<image preserveAspectRatio="none" x="400" y="153" width="113" height="52" xlink:href="img/2.png"/>
<path d="M55 474.5H880v34.3H55Z" class="g0"/>
<path d="M55 474.5v34.3M880 474.5v34.3M55 474.5H880M55 508.8H880m-825 0V880M880 508.8V880M55 508.8H880" class="g1"/>
<path d="M56.5 531.3h822v19.5H56.5Z" class="g4"/>
<path d="M56.5 570.2h822v19.4H56.5Z" class="g4"/>
<path d="M55 880v89.5m694.5 0v61.8M880 969.5v61.8M749.5 969.5H880m-130.5 61.8H880M880 935v34.5m-130.5 61.8v34.4M880 1031.3v34.4M749.5 1031.3H880m-130.5 34.4H880" class="g1"/>
</svg>